{"asset":{"generator":"Khronos glTF Spline I/O v0.0.1","version":"2.0"},"scenes":[{"nodes":[0]}],"nodes":[{"name":"","children":[1,2,3]},{"name":"Group","matrix":[1,0,0,0,0,1,0,0,0,0,1,0,0,-11.724527422387837,-0.4289236068725586,1],"children":[4,5,6]},{"name":"Directional Light","translation":[200,300,300],"rotation":[-0.4062840720729887,0.12301291902225084,-0.2623788760260691,0.8665785595944042],"extensions":{"KHR_lights_punctual":{"light":0}}},{"name":"Personal Camera","camera":0,"translation":[98.96316922529995,26.658885750474745,-72.83294979671297],"rotation":[-0.07952616405071748,0.8737657042293212,0.1527770429912875,0.4548277239558457]},{"name":"Cube 2","matrix":[1,0,0,0,0,1,0,0,0,0,1,0,-1.7763568394002505e-15,-10.002319812774658,0.6176500320434584,1],"mesh":0},{"name":"Cube","matrix":[1,0,0,0,0,1,0,0,0,0,1,0,0,-2.1714425086975098,0.4289236068725586,1],"mesh":1},{"name":"Pyramid","matrix":[1,0,0,0,0,1,0,0,0,0,1,0,1.7763568394002505e-15,7.031147956848144,0.6975033283233651,1],"mesh":2}],"cameras":[{"type":"perspective","perspective":{"aspectRatio":1.8658892128279883,"yfov":0.7853981633974483,"znear":5,"zfar":100000}}],"meshes":[{"primitives":[{"attributes":{"POSITION":1,"NORMAL":2,"FACEMAP":3,"COLOR":4,"RANDOMCOLOR":5},"indices":0}]},{"primitives":[{"attributes":{"POSITION":7,"NORMAL":8,"FACEMAP":9,"COLOR":10,"RANDOMCOLOR":11},"indices":6}]},{"primitives":[{"attributes":{"POSITION":13,"NORMAL":14,"FACEMAP":15,"COLOR":16,"RANDOMCOLOR":17},"indices":12}]}],"buffers":[{"uri":"data:application/octet-stream;base64,","byteLength":12960},{"uri":"data:application/octet-stream;base64,","byteLength":12960},{"uri":"data:application/octet-stream;base64,","byteLength":10048}],"bufferViews":[{"buffer":0,"byteOffset":0,"byteLength":1296,"target":34963},{"buffer":0,"byteOffset":1296,"byteLength":2592,"target":34962},{"buffer":0,"byteOffset":3888,"byteLength":2592,"target":34962},{"buffer":0,"byteOffset":6480,"byteLength":432,"target":34962},{"buffer":0,"byteOffset":6912,"byteLength":3456,"target":34962},{"buffer":0,"byteOffset":10368,"byteLength":2592,"target":34962},{"buffer":1,"byteOffset":0,"byteLength":1296,"target":34963},{"buffer":1,"byteOffset":1296,"byteLength":2592,"target":34962},{"buffer":1,"byteOffset":3888,"byteLength":2592,"target":34962},{"buffer":1,"byteOffset":6480,"byteLength":432,"target":34962},{"buffer":1,"byteOffset":6912,"byteLength":3456,"target":34962},{"buffer":1,"byteOffset":10368,"byteLength":2592,"target":34962},{"buffer":2,"byteOffset":0,"byteLength":960,"target":34963},{"buffer":2,"byteOffset":960,"byteLength":2016,"target":34962},{"buffer":2,"byteOffset":2976,"byteLength":2016,"target":34962},{"buffer":2,"byteOffset":4992,"byteLength":352,"target":34962},{"buffer":2,"byteOffset":5344,"byteLength":2688,"target":34962},{"buffer":2,"byteOffset":8032,"byteLength":2016,"target":34962}],"accessors":[{"bufferView":0,"byteOffset":0,"componentType":5125,"count":324,"type":"SCALAR","min":[0],"max":[215]},{"bufferView":1,"byteOffset":0,"componentType":5126,"count":216,"type":"VEC3","min":[-17.819091796875,-4.621501445770264,-18.479001998901367],"max":[17.819091796875,4.621501445770264,17.243701934814453]},{"bufferView":2,"byteOffset":0,"componentType":5126,"count":216,"type":"VEC3","min":[-0.9967066645622253,-0.9999759197235107,-0.9969658255577087],"max":[0.9972575902938843,1,0.99700927734375]},{"bufferView":3,"byteOffset":0,"componentType":5125,"count":108,"type":"SCALAR","min":[0],"max":[107]},{"bufferView":4,"byteOffset":0,"componentType":5126,"count":216,"type":"VEC4","min":[0,0,0,0],"max":[1,1,1,0]},{"bufferView":5,"byteOffset":0,"componentType":5126,"count":216,"type":"VEC3","min":[0.46181607246398926,0.9800955653190613,0.019807051867246628],"max":[0.46181607246398926,0.9800955653190613,0.019807051867246628]},{"bufferView":6,"byteOffset":0,"componentType":5125,"count":324,"type":"SCALAR","min":[0],"max":[215]},{"bufferView":7,"byteOffset":0,"componentType":5126,"count":216,"type":"VEC3","min":[-12.374368667602539,-3.2093758583068848,-12.832639694213867],"max":[12.374368667602539,3.2093758583068848,11.97479248046875]},{"bufferView":8,"byteOffset":0,"componentType":5126,"count":216,"type":"VEC3","min":[-0.9957382082939148,-0.999975860118866,-0.9960326552391052],"max":[0.9963658452033997,1,0.9960818886756897]},{"bufferView":9,"byteOffset":0,"componentType":5125,"count":108,"type":"SCALAR","min":[0],"max":[107]},{"bufferView":10,"byteOffset":0,"componentType":5126,"count":216,"type":"VEC4","min":[0,0,0,0],"max":[1,1,1,0]},{"bufferView":11,"byteOffset":0,"componentType":5126,"count":216,"type":"VEC3","min":[0.08791514486074448,0.9294286370277405,0.8998057842254639],"max":[0.08791514486074448,0.9294286370277405,0.8998057842254639]},{"bufferView":12,"byteOffset":0,"componentType":5125,"count":240,"type":"SCALAR","min":[0],"max":[167]},{"bufferView":13,"byteOffset":0,"componentType":5126,"count":168,"type":"VEC3","min":[-8.131728172302246,-5.9932146072387695,-8.829231262207031],"max":[8.131728172302246,7.592673301696777,7.434224605560303]},{"bufferView":14,"byteOffset":0,"componentType":5126,"count":168,"type":"VEC3","min":[-0.9979721307754517,-0.9999995231628418,-0.9979721903800964],"max":[0.9979721307754517,0.5171130895614624,0.9979721307754517]},{"bufferView":15,"byteOffset":0,"componentType":5125,"count":88,"type":"SCALAR","min":[0],"max":[79]},{"bufferView":16,"byteOffset":0,"componentType":5126,"count":168,"type":"VEC4","min":[0,0,0,0],"max":[1,1,1,0]},{"bufferView":17,"byteOffset":0,"componentType":5126,"count":168,"type":"VEC3","min":[0.15179075300693512,0.15179075300693512,0.15179075300693512],"max":[0.15179075300693512,0.15179075300693512,0.15179075300693512]}],"extensions":{"KHR_lights_punctual":{"lights":[{"type":"directional","name":"Directional Light","color":[1,1,1],"intensity":0.7}]}},"extensionsUsed":["KHR_lights_punctual"]}